<?xml version='1.0' encoding='utf-8'?>
<svg height="49mm" version="1.1" width="49mm" xmlns="http://www.w3.org/2000/svg"><rect height="1mm" width="1mm" x="4mm" y="4mm" /><rect height="1mm" width="1mm" x="5mm" y="4mm" /><rect height="1mm" width="1mm" x="6mm" y="4mm" /><rect height="1mm" width="1mm" x="7mm" y="4mm" /><rect height="1mm" width="1mm" x="8mm" y="4mm" /><rect height="1mm" width="1mm" x="9mm" y="4mm" /><rect height="1mm" width="1mm" x="10mm" y="4mm" /><rect height="1mm" width="1mm" x="12mm" y="4mm" /><rect height="1mm" width="1mm" x="13mm" y="4mm" /><rect height="1mm" width="1mm" x="16mm" y="4mm" /><rect height="1mm" width="1mm" x="19mm" y="4mm" /><rect height="1mm" width="1mm" x="20mm" y="4mm" /><rect height="1mm" width="1mm" x="23mm" y="4mm" /><rect height="1mm" width="1mm" x="24mm" y="4mm" /><rect height="1mm" width="1mm" x="25mm" y="4mm" /><rect height="1mm" width="1mm" x="26mm" y="4mm" /><rect height="1mm" width="1mm" x="27mm" y="4mm" /><rect height="1mm" width="1mm" x="28mm" y="4mm" /><rect height="1mm" width="1mm" x="29mm" y="4mm" /><rect height="1mm" width="1mm" x="33mm" y="4mm" /><rect height="1mm" width="1mm" x="36mm" y="4mm" /><rect height="1mm" width="1mm" x="38mm" y="4mm" /><rect height="1mm" width="1mm" x="39mm" y="4mm" /><rect height="1mm" width="1mm" x="40mm" y="4mm" /><rect height="1mm" width="1mm" x="41mm" y="4mm" /><rect height="1mm" width="1mm" x="42mm" y="4mm" /><rect height="1mm" width="1mm" x="43mm" y="4mm" /><rect height="1mm" width="1mm" x="44mm" y="4mm" /><rect height="1mm" width="1mm" x="4mm" y="5mm" /><rect height="1mm" width="1mm" x="10mm" y="5mm" /><rect height="1mm" width="1mm" x="14mm" y="5mm" /><rect height="1mm" width="1mm" x="19mm" y="5mm" /><rect height="1mm" width="1mm" x="22mm" y="5mm" /><rect height="1mm" width="1mm" x="24mm" y="5mm" /><rect height="1mm" width="1mm" x="25mm" y="5mm" /><rect height="1mm" width="1mm" x="26mm" y="5mm" /><rect height="1mm" width="1mm" x="27mm" y="5mm" /><rect height="1mm" width="1mm" x="29mm" y="5mm" /><rect height="1mm" width="1mm" x="30mm" y="5mm" /><rect height="1mm" width="1mm" x="32mm" y="5mm" /><rect height="1mm" width="1mm" x="34mm" y="5mm" /><rect height="1mm" width="1mm" x="38mm" y="5mm" /><rect height="1mm" width="1mm" x="44mm" y="5mm" /><rect height="1mm" width="1mm" x="4mm" y="6mm" /><rect height="1mm" width="1mm" x="6mm" y="6mm" /><rect height="1mm" width="1mm" x="7mm" y="6mm" /><rect height="1mm" width="1mm" x="8mm" y="6mm" /><rect height="1mm" width="1mm" x="10mm" y="6mm" /><rect height="1mm" width="1mm" x="14mm" y="6mm" /><rect height="1mm" width="1mm" x="17mm" y="6mm" /><rect height="1mm" width="1mm" x="20mm" y="6mm" /><rect height="1mm" width="1mm" x="21mm" y="6mm" /><rect height="1mm" width="1mm" x="22mm" y="6mm" /><rect height="1mm" width="1mm" x="23mm" y="6mm" /><rect height="1mm" width="1mm" x="24mm" y="6mm" /><rect height="1mm" width="1mm" x="26mm" y="6mm" /><rect height="1mm" width="1mm" x="28mm" y="6mm" /><rect height="1mm" width="1mm" x="32mm" y="6mm" /><rect height="1mm" width="1mm" x="33mm" y="6mm" /><rect height="1mm" width="1mm" x="34mm" y="6mm" /><rect height="1mm" width="1mm" x="35mm" y="6mm" /><rect height="1mm" width="1mm" x="38mm" y="6mm" /><rect height="1mm" width="1mm" x="40mm" y="6mm" /><rect height="1mm" width="1mm" x="41mm" y="6mm" /><rect height="1mm" width="1mm" x="42mm" y="6mm" /><rect height="1mm" width="1mm" x="44mm" y="6mm" /><rect height="1mm" width="1mm" x="4mm" y="7mm" /><rect height="1mm" width="1mm" x="6mm" y="7mm" /><rect height="1mm" width="1mm" x="7mm" y="7mm" /><rect height="1mm" width="1mm" x="8mm" y="7mm" /><rect height="1mm" width="1mm" x="10mm" y="7mm" /><rect height="1mm" width="1mm" x="12mm" y="7mm" /><rect height="1mm" width="1mm" x="13mm" y="7mm" /><rect height="1mm" width="1mm" x="14mm" y="7mm" /><rect height="1mm" width="1mm" x="15mm" y="7mm" /><rect height="1mm" width="1mm" x="16mm" y="7mm" /><rect height="1mm" width="1mm" x="18mm" y="7mm" /><rect height="1mm" width="1mm" x="19mm" y="7mm" /><rect height="1mm" width="1mm" x="20mm" y="7mm" /><rect height="1mm" width="1mm" x="21mm" y="7mm" /><rect height="1mm" width="1mm" x="25mm" y="7mm" /><rect height="1mm" width="1mm" x="27mm" y="7mm" /><rect height="1mm" width="1mm" x="34mm" y="7mm" /><rect height="1mm" width="1mm" x="36mm" y="7mm" /><rect height="1mm" width="1mm" x="38mm" y="7mm" /><rect height="1mm" width="1mm" x="40mm" y="7mm" /><rect height="1mm" width="1mm" x="41mm" y="7mm" /><rect height="1mm" width="1mm" x="42mm" y="7mm" /><rect height="1mm" width="1mm" x="44mm" y="7mm" /><rect height="1mm" width="1mm" x="4mm" y="8mm" /><rect height="1mm" width="1mm" x="6mm" y="8mm" /><rect height="1mm" width="1mm" x="7mm" y="8mm" /><rect height="1mm" width="1mm" x="8mm" y="8mm" /><rect height="1mm" width="1mm" x="10mm" y="8mm" /><rect height="1mm" width="1mm" x="12mm" y="8mm" /><rect height="1mm" width="1mm" x="14mm" y="8mm" /><rect height="1mm" width="1mm" x="15mm" y="8mm" /><rect height="1mm" width="1mm" x="18mm" y="8mm" /><rect height="1mm" width="1mm" x="20mm" y="8mm" /><rect height="1mm" width="1mm" x="21mm" y="8mm" /><rect height="1mm" width="1mm" x="24mm" y="8mm" /><rect height="1mm" width="1mm" x="28mm" y="8mm" /><rect height="1mm" width="1mm" x="29mm" y="8mm" /><rect height="1mm" width="1mm" x="30mm" y="8mm" /><rect height="1mm" width="1mm" x="31mm" y="8mm" /><rect height="1mm" width="1mm" x="32mm" y="8mm" /><rect height="1mm" width="1mm" x="33mm" y="8mm" /><rect height="1mm" width="1mm" x="34mm" y="8mm" /><rect height="1mm" width="1mm" x="38mm" y="8mm" /><rect height="1mm" width="1mm" x="40mm" y="8mm" /><rect height="1mm" width="1mm" x="41mm" y="8mm" /><rect height="1mm" width="1mm" x="42mm" y="8mm" /><rect height="1mm" width="1mm" x="44mm" y="8mm" /><rect height="1mm" width="1mm" x="4mm" y="9mm" /><rect height="1mm" width="1mm" x="10mm" y="9mm" /><rect height="1mm" width="1mm" x="12mm" y="9mm" /><rect height="1mm" width="1mm" x="14mm" y="9mm" /><rect height="1mm" width="1mm" x="17mm" y="9mm" /><rect height="1mm" width="1mm" x="18mm" y="9mm" /><rect height="1mm" width="1mm" x="19mm" y="9mm" /><rect height="1mm" width="1mm" x="20mm" y="9mm" /><rect height="1mm" width="1mm" x="22mm" y="9mm" /><rect height="1mm" width="1mm" x="23mm" y="9mm" /><rect height="1mm" width="1mm" x="27mm" y="9mm" /><rect height="1mm" width="1mm" x="28mm" y="9mm" /><rect height="1mm" width="1mm" x="29mm" y="9mm" /><rect height="1mm" width="1mm" x="30mm" y="9mm" /><rect height="1mm" width="1mm" x="32mm" y="9mm" /><rect height="1mm" width="1mm" x="33mm" y="9mm" /><rect height="1mm" width="1mm" x="35mm" y="9mm" /><rect height="1mm" width="1mm" x="38mm" y="9mm" /><rect height="1mm" width="1mm" x="44mm" y="9mm" /><rect height="1mm" width="1mm" x="4mm" y="10mm" /><rect height="1mm" width="1mm" x="5mm" y="10mm" /><rect height="1mm" width="1mm" x="6mm" y="10mm" /><rect height="1mm" width="1mm" x="7mm" y="10mm" /><rect height="1mm" width="1mm" x="8mm" y="10mm" /><rect height="1mm" width="1mm" x="9mm" y="10mm" /><rect height="1mm" width="1mm" x="10mm" y="10mm" /><rect height="1mm" width="1mm" x="12mm" y="10mm" /><rect height="1mm" width="1mm" x="14mm" y="10mm" /><rect height="1mm" width="1mm" x="16mm" y="10mm" /><rect height="1mm" width="1mm" x="18mm" y="10mm" /><rect height="1mm" width="1mm" x="20mm" y="10mm" /><rect height="1mm" width="1mm" x="22mm" y="10mm" /><rect height="1mm" width="1mm" x="24mm" y="10mm" /><rect height="1mm" width="1mm" x="26mm" y="10mm" /><rect height="1mm" width="1mm" x="28mm" y="10mm" /><rect height="1mm" width="1mm" x="30mm" y="10mm" /><rect height="1mm" width="1mm" x="32mm" y="10mm" /><rect height="1mm" width="1mm" x="34mm" y="10mm" /><rect height="1mm" width="1mm" x="36mm" y="10mm" /><rect height="1mm" width="1mm" x="38mm" y="10mm" /><rect height="1mm" width="1mm" x="39mm" y="10mm" /><rect height="1mm" width="1mm" x="40mm" y="10mm" /><rect height="1mm" width="1mm" x="41mm" y="10mm" /><rect height="1mm" width="1mm" x="42mm" y="10mm" /><rect height="1mm" width="1mm" x="43mm" y="10mm" /><rect height="1mm" width="1mm" x="44mm" y="10mm" /><rect height="1mm" width="1mm" x="12mm" y="11mm" /><rect height="1mm" width="1mm" x="14mm" y="11mm" /><rect height="1mm" width="1mm" x="15mm" y="11mm" /><rect height="1mm" width="1mm" x="18mm" y="11mm" /><rect height="1mm" width="1mm" x="19mm" y="11mm" /><rect height="1mm" width="1mm" x="20mm" y="11mm" /><rect height="1mm" width="1mm" x="21mm" y="11mm" /><rect height="1mm" width="1mm" x="22mm" y="11mm" /><rect height="1mm" width="1mm" x="24mm" y="11mm" /><rect height="1mm" width="1mm" x="25mm" y="11mm" /><rect height="1mm" width="1mm" x="26mm" y="11mm" /><rect height="1mm" width="1mm" x="27mm" y="11mm" /><rect height="1mm" width="1mm" x="32mm" y="11mm" /><rect height="1mm" width="1mm" x="33mm" y="11mm" /><rect height="1mm" width="1mm" x="34mm" y="11mm" /><rect height="1mm" width="1mm" x="36mm" y="11mm" /><rect height="1mm" width="1mm" x="4mm" y="12mm" /><rect height="1mm" width="1mm" x="8mm" y="12mm" /><rect height="1mm" width="1mm" x="10mm" y="12mm" /><rect height="1mm" width="1mm" x="11mm" y="12mm" /><rect height="1mm" width="1mm" x="12mm" y="12mm" /><rect height="1mm" width="1mm" x="13mm" y="12mm" /><rect height="1mm" width="1mm" x="14mm" y="12mm" /><rect height="1mm" width="1mm" x="16mm" y="12mm" /><rect height="1mm" width="1mm" x="17mm" y="12mm" /><rect height="1mm" width="1mm" x="21mm" y="12mm" /><rect height="1mm" width="1mm" x="25mm" y="12mm" /><rect height="1mm" width="1mm" x="30mm" y="12mm" /><rect height="1mm" width="1mm" x="32mm" y="12mm" /><rect height="1mm" width="1mm" x="33mm" y="12mm" /><rect height="1mm" width="1mm" x="34mm" y="12mm" /><rect height="1mm" width="1mm" x="35mm" y="12mm" /><rect height="1mm" width="1mm" x="36mm" y="12mm" /><rect height="1mm" width="1mm" x="37mm" y="12mm" /><rect height="1mm" width="1mm" x="38mm" y="12mm" /><rect height="1mm" width="1mm" x="39mm" y="12mm" /><rect height="1mm" width="1mm" x="40mm" y="12mm" /><rect height="1mm" width="1mm" x="41mm" y="12mm" /><rect height="1mm" width="1mm" x="44mm" y="12mm" /><rect height="1mm" width="1mm" x="5mm" y="13mm" /><rect height="1mm" width="1mm" x="7mm" y="13mm" /><rect height="1mm" width="1mm" x="9mm" y="13mm" /><rect height="1mm" width="1mm" x="13mm" y="13mm" /><rect height="1mm" width="1mm" x="14mm" y="13mm" /><rect height="1mm" width="1mm" x="15mm" y="13mm" /><rect height="1mm" width="1mm" x="16mm" y="13mm" /><rect height="1mm" width="1mm" x="18mm" y="13mm" /><rect height="1mm" width="1mm" x="21mm" y="13mm" /><rect height="1mm" width="1mm" x="27mm" y="13mm" /><rect height="1mm" width="1mm" x="29mm" y="13mm" /><rect height="1mm" width="1mm" x="30mm" y="13mm" /><rect height="1mm" width="1mm" x="31mm" y="13mm" /><rect height="1mm" width="1mm" x="32mm" y="13mm" /><rect height="1mm" width="1mm" x="34mm" y="13mm" /><rect height="1mm" width="1mm" x="36mm" y="13mm" /><rect height="1mm" width="1mm" x="37mm" y="13mm" /><rect height="1mm" width="1mm" x="40mm" y="13mm" /><rect height="1mm" width="1mm" x="43mm" y="13mm" /><rect height="1mm" width="1mm" x="5mm" y="14mm" /><rect height="1mm" width="1mm" x="6mm" y="14mm" /><rect height="1mm" width="1mm" x="9mm" y="14mm" /><rect height="1mm" width="1mm" x="10mm" y="14mm" /><rect height="1mm" width="1mm" x="12mm" y="14mm" /><rect height="1mm" width="1mm" x="14mm" y="14mm" /><rect height="1mm" width="1mm" x="16mm" y="14mm" /><rect height="1mm" width="1mm" x="17mm" y="14mm" /><rect height="1mm" width="1mm" x="19mm" y="14mm" /><rect height="1mm" width="1mm" x="21mm" y="14mm" /><rect height="1mm" width="1mm" x="22mm" y="14mm" /><rect height="1mm" width="1mm" x="26mm" y="14mm" /><rect height="1mm" width="1mm" x="27mm" y="14mm" /><rect height="1mm" width="1mm" x="29mm" y="14mm" /><rect height="1mm" width="1mm" x="31mm" y="14mm" /><rect height="1mm" width="1mm" x="32mm" y="14mm" /><rect height="1mm" width="1mm" x="38mm" y="14mm" /><rect height="1mm" width="1mm" x="39mm" y="14mm" /><rect height="1mm" width="1mm" x="40mm" y="14mm" /><rect height="1mm" width="1mm" x="41mm" y="14mm" /><rect height="1mm" width="1mm" x="42mm" y="14mm" /><rect height="1mm" width="1mm" x="43mm" y="14mm" /><rect height="1mm" width="1mm" x="4mm" y="15mm" /><rect height="1mm" width="1mm" x="5mm" y="15mm" /><rect height="1mm" width="1mm" x="8mm" y="15mm" /><rect height="1mm" width="1mm" x="15mm" y="15mm" /><rect height="1mm" width="1mm" x="17mm" y="15mm" /><rect height="1mm" width="1mm" x="18mm" y="15mm" /><rect height="1mm" width="1mm" x="20mm" y="15mm" /><rect height="1mm" width="1mm" x="21mm" y="15mm" /><rect height="1mm" width="1mm" x="27mm" y="15mm" /><rect height="1mm" width="1mm" x="28mm" y="15mm" /><rect height="1mm" width="1mm" x="31mm" y="15mm" /><rect height="1mm" width="1mm" x="33mm" y="15mm" /><rect height="1mm" width="1mm" x="34mm" y="15mm" /><rect height="1mm" width="1mm" x="35mm" y="15mm" /><rect height="1mm" width="1mm" x="37mm" y="15mm" /><rect height="1mm" width="1mm" x="39mm" y="15mm" /><rect height="1mm" width="1mm" x="40mm" y="15mm" /><rect height="1mm" width="1mm" x="41mm" y="15mm" /><rect height="1mm" width="1mm" x="43mm" y="15mm" /><rect height="1mm" width="1mm" x="8mm" y="16mm" /><rect height="1mm" width="1mm" x="9mm" y="16mm" /><rect height="1mm" width="1mm" x="10mm" y="16mm" /><rect height="1mm" width="1mm" x="14mm" y="16mm" /><rect height="1mm" width="1mm" x="18mm" y="16mm" /><rect height="1mm" width="1mm" x="19mm" y="16mm" /><rect height="1mm" width="1mm" x="23mm" y="16mm" /><rect height="1mm" width="1mm" x="24mm" y="16mm" /><rect height="1mm" width="1mm" x="25mm" y="16mm" /><rect height="1mm" width="1mm" x="26mm" y="16mm" /><rect height="1mm" width="1mm" x="32mm" y="16mm" /><rect height="1mm" width="1mm" x="33mm" y="16mm" /><rect height="1mm" width="1mm" x="34mm" y="16mm" /><rect height="1mm" width="1mm" x="36mm" y="16mm" /><rect height="1mm" width="1mm" x="37mm" y="16mm" /><rect height="1mm" width="1mm" x="43mm" y="16mm" /><rect height="1mm" width="1mm" x="44mm" y="16mm" /><rect height="1mm" width="1mm" x="6mm" y="17mm" /><rect height="1mm" width="1mm" x="7mm" y="17mm" /><rect height="1mm" width="1mm" x="8mm" y="17mm" /><rect height="1mm" width="1mm" x="15mm" y="17mm" /><rect height="1mm" width="1mm" x="16mm" y="17mm" /><rect height="1mm" width="1mm" x="17mm" y="17mm" /><rect height="1mm" width="1mm" x="18mm" y="17mm" /><rect height="1mm" width="1mm" x="19mm" y="17mm" /><rect height="1mm" width="1mm" x="20mm" y="17mm" /><rect height="1mm" width="1mm" x="21mm" y="17mm" /><rect height="1mm" width="1mm" x="22mm" y="17mm" /><rect height="1mm" width="1mm" x="23mm" y="17mm" /><rect height="1mm" width="1mm" x="25mm" y="17mm" /><rect height="1mm" width="1mm" x="28mm" y="17mm" /><rect height="1mm" width="1mm" x="29mm" y="17mm" /><rect height="1mm" width="1mm" x="30mm" y="17mm" /><rect height="1mm" width="1mm" x="31mm" y="17mm" /><rect height="1mm" width="1mm" x="37mm" y="17mm" /><rect height="1mm" width="1mm" x="38mm" y="17mm" /><rect height="1mm" width="1mm" x="39mm" y="17mm" /><rect height="1mm" width="1mm" x="40mm" y="17mm" /><rect height="1mm" width="1mm" x="44mm" y="17mm" /><rect height="1mm" width="1mm" x="5mm" y="18mm" /><rect height="1mm" width="1mm" x="7mm" y="18mm" /><rect height="1mm" width="1mm" x="9mm" y="18mm" /><rect height="1mm" width="1mm" x="10mm" y="18mm" /><rect height="1mm" width="1mm" x="12mm" y="18mm" /><rect height="1mm" width="1mm" x="13mm" y="18mm" /><rect height="1mm" width="1mm" x="16mm" y="18mm" /><rect height="1mm" width="1mm" x="17mm" y="18mm" /><rect height="1mm" width="1mm" x="22mm" y="18mm" /><rect height="1mm" width="1mm" x="23mm" y="18mm" /><rect height="1mm" width="1mm" x="25mm" y="18mm" /><rect height="1mm" width="1mm" x="26mm" y="18mm" /><rect height="1mm" width="1mm" x="27mm" y="18mm" /><rect height="1mm" width="1mm" x="28mm" y="18mm" /><rect height="1mm" width="1mm" x="29mm" y="18mm" /><rect height="1mm" width="1mm" x="31mm" y="18mm" /><rect height="1mm" width="1mm" x="33mm" y="18mm" /><rect height="1mm" width="1mm" x="34mm" y="18mm" /><rect height="1mm" width="1mm" x="38mm" y="18mm" /><rect height="1mm" width="1mm" x="42mm" y="18mm" /><rect height="1mm" width="1mm" x="43mm" y="18mm" /><rect height="1mm" width="1mm" x="44mm" y="18mm" /><rect height="1mm" width="1mm" x="8mm" y="19mm" /><rect height="1mm" width="1mm" x="13mm" y="19mm" /><rect height="1mm" width="1mm" x="14mm" y="19mm" /><rect height="1mm" width="1mm" x="17mm" y="19mm" /><rect height="1mm" width="1mm" x="19mm" y="19mm" /><rect height="1mm" width="1mm" x="20mm" y="19mm" /><rect height="1mm" width="1mm" x="23mm" y="19mm" /><rect height="1mm" width="1mm" x="24mm" y="19mm" /><rect height="1mm" width="1mm" x="25mm" y="19mm" /><rect height="1mm" width="1mm" x="27mm" y="19mm" /><rect height="1mm" width="1mm" x="30mm" y="19mm" /><rect height="1mm" width="1mm" x="32mm" y="19mm" /><rect height="1mm" width="1mm" x="35mm" y="19mm" /><rect height="1mm" width="1mm" x="38mm" y="19mm" /><rect height="1mm" width="1mm" x="39mm" y="19mm" /><rect height="1mm" width="1mm" x="40mm" y="19mm" /><rect height="1mm" width="1mm" x="4mm" y="20mm" /><rect height="1mm" width="1mm" x="6mm" y="20mm" /><rect height="1mm" width="1mm" x="9mm" y="20mm" /><rect height="1mm" width="1mm" x="10mm" y="20mm" /><rect height="1mm" width="1mm" x="14mm" y="20mm" /><rect height="1mm" width="1mm" x="15mm" y="20mm" /><rect height="1mm" width="1mm" x="19mm" y="20mm" /><rect height="1mm" width="1mm" x="20mm" y="20mm" /><rect height="1mm" width="1mm" x="22mm" y="20mm" /><rect height="1mm" width="1mm" x="25mm" y="20mm" /><rect height="1mm" width="1mm" x="30mm" y="20mm" /><rect height="1mm" width="1mm" x="32mm" y="20mm" /><rect height="1mm" width="1mm" x="33mm" y="20mm" /><rect height="1mm" width="1mm" x="34mm" y="20mm" /><rect height="1mm" width="1mm" x="35mm" y="20mm" /><rect height="1mm" width="1mm" x="37mm" y="20mm" /><rect height="1mm" width="1mm" x="39mm" y="20mm" /><rect height="1mm" width="1mm" x="41mm" y="20mm" /><rect height="1mm" width="1mm" x="6mm" y="21mm" /><rect height="1mm" width="1mm" x="8mm" y="21mm" /><rect height="1mm" width="1mm" x="12mm" y="21mm" /><rect height="1mm" width="1mm" x="13mm" y="21mm" /><rect height="1mm" width="1mm" x="14mm" y="21mm" /><rect height="1mm" width="1mm" x="16mm" y="21mm" /><rect height="1mm" width="1mm" x="18mm" y="21mm" /><rect height="1mm" width="1mm" x="19mm" y="21mm" /><rect height="1mm" width="1mm" x="21mm" y="21mm" /><rect height="1mm" width="1mm" x="24mm" y="21mm" /><rect height="1mm" width="1mm" x="26mm" y="21mm" /><rect height="1mm" width="1mm" x="27mm" y="21mm" /><rect height="1mm" width="1mm" x="28mm" y="21mm" /><rect height="1mm" width="1mm" x="33mm" y="21mm" /><rect height="1mm" width="1mm" x="36mm" y="21mm" /><rect height="1mm" width="1mm" x="37mm" y="21mm" /><rect height="1mm" width="1mm" x="38mm" y="21mm" /><rect height="1mm" width="1mm" x="39mm" y="21mm" /><rect height="1mm" width="1mm" x="40mm" y="21mm" /><rect height="1mm" width="1mm" x="42mm" y="21mm" /><rect height="1mm" width="1mm" x="44mm" y="21mm" /><rect height="1mm" width="1mm" x="4mm" y="22mm" /><rect height="1mm" width="1mm" x="7mm" y="22mm" /><rect height="1mm" width="1mm" x="10mm" y="22mm" /><rect height="1mm" width="1mm" x="16mm" y="22mm" /><rect height="1mm" width="1mm" x="19mm" y="22mm" /><rect height="1mm" width="1mm" x="22mm" y="22mm" /><rect height="1mm" width="1mm" x="25mm" y="22mm" /><rect height="1mm" width="1mm" x="26mm" y="22mm" /><rect height="1mm" width="1mm" x="28mm" y="22mm" /><rect height="1mm" width="1mm" x="29mm" y="22mm" /><rect height="1mm" width="1mm" x="30mm" y="22mm" /><rect height="1mm" width="1mm" x="32mm" y="22mm" /><rect height="1mm" width="1mm" x="34mm" y="22mm" /><rect height="1mm" width="1mm" x="35mm" y="22mm" /><rect height="1mm" width="1mm" x="38mm" y="22mm" /><rect height="1mm" width="1mm" x="41mm" y="22mm" /><rect height="1mm" width="1mm" x="44mm" y="22mm" /><rect height="1mm" width="1mm" x="8mm" y="23mm" /><rect height="1mm" width="1mm" x="14mm" y="23mm" /><rect height="1mm" width="1mm" x="15mm" y="23mm" /><rect height="1mm" width="1mm" x="16mm" y="23mm" /><rect height="1mm" width="1mm" x="17mm" y="23mm" /><rect height="1mm" width="1mm" x="18mm" y="23mm" /><rect height="1mm" width="1mm" x="19mm" y="23mm" /><rect height="1mm" width="1mm" x="20mm" y="23mm" /><rect height="1mm" width="1mm" x="24mm" y="23mm" /><rect height="1mm" width="1mm" x="25mm" y="23mm" /><rect height="1mm" width="1mm" x="29mm" y="23mm" /><rect height="1mm" width="1mm" x="33mm" y="23mm" /><rect height="1mm" width="1mm" x="34mm" y="23mm" /><rect height="1mm" width="1mm" x="36mm" y="23mm" /><rect height="1mm" width="1mm" x="39mm" y="23mm" /><rect height="1mm" width="1mm" x="6mm" y="24mm" /><rect height="1mm" width="1mm" x="10mm" y="24mm" /><rect height="1mm" width="1mm" x="11mm" y="24mm" /><rect height="1mm" width="1mm" x="13mm" y="24mm" /><rect height="1mm" width="1mm" x="19mm" y="24mm" /><rect height="1mm" width="1mm" x="23mm" y="24mm" /><rect height="1mm" width="1mm" x="24mm" y="24mm" /><rect height="1mm" width="1mm" x="28mm" y="24mm" /><rect height="1mm" width="1mm" x="29mm" y="24mm" /><rect height="1mm" width="1mm" x="31mm" y="24mm" /><rect height="1mm" width="1mm" x="33mm" y="24mm" /><rect height="1mm" width="1mm" x="35mm" y="24mm" /><rect height="1mm" width="1mm" x="36mm" y="24mm" /><rect height="1mm" width="1mm" x="37mm" y="24mm" /><rect height="1mm" width="1mm" x="42mm" y="24mm" /><rect height="1mm" width="1mm" x="43mm" y="24mm" /><rect height="1mm" width="1mm" x="44mm" y="24mm" /><rect height="1mm" width="1mm" x="4mm" y="25mm" /><rect height="1mm" width="1mm" x="6mm" y="25mm" /><rect height="1mm" width="1mm" x="8mm" y="25mm" /><rect height="1mm" width="1mm" x="11mm" y="25mm" /><rect height="1mm" width="1mm" x="13mm" y="25mm" /><rect height="1mm" width="1mm" x="14mm" y="25mm" /><rect height="1mm" width="1mm" x="15mm" y="25mm" /><rect height="1mm" width="1mm" x="16mm" y="25mm" /><rect height="1mm" width="1mm" x="17mm" y="25mm" /><rect height="1mm" width="1mm" x="19mm" y="25mm" /><rect height="1mm" width="1mm" x="20mm" y="25mm" /><rect height="1mm" width="1mm" x="22mm" y="25mm" /><rect height="1mm" width="1mm" x="23mm" y="25mm" /><rect height="1mm" width="1mm" x="26mm" y="25mm" /><rect height="1mm" width="1mm" x="27mm" y="25mm" /><rect height="1mm" width="1mm" x="28mm" y="25mm" /><rect height="1mm" width="1mm" x="30mm" y="25mm" /><rect height="1mm" width="1mm" x="31mm" y="25mm" /><rect height="1mm" width="1mm" x="32mm" y="25mm" /><rect height="1mm" width="1mm" x="33mm" y="25mm" /><rect height="1mm" width="1mm" x="34mm" y="25mm" /><rect height="1mm" width="1mm" x="38mm" y="25mm" /><rect height="1mm" width="1mm" x="40mm" y="25mm" /><rect height="1mm" width="1mm" x="44mm" y="25mm" /><rect height="1mm" width="1mm" x="5mm" y="26mm" /><rect height="1mm" width="1mm" x="7mm" y="26mm" /><rect height="1mm" width="1mm" x="8mm" y="26mm" /><rect height="1mm" width="1mm" x="10mm" y="26mm" /><rect height="1mm" width="1mm" x="13mm" y="26mm" /><rect height="1mm" width="1mm" x="16mm" y="26mm" /><rect height="1mm" width="1mm" x="18mm" y="26mm" /><rect height="1mm" width="1mm" x="20mm" y="26mm" /><rect height="1mm" width="1mm" x="21mm" y="26mm" /><rect height="1mm" width="1mm" x="22mm" y="26mm" /><rect height="1mm" width="1mm" x="23mm" y="26mm" /><rect height="1mm" width="1mm" x="24mm" y="26mm" /><rect height="1mm" width="1mm" x="25mm" y="26mm" /><rect height="1mm" width="1mm" x="27mm" y="26mm" /><rect height="1mm" width="1mm" x="28mm" y="26mm" /><rect height="1mm" width="1mm" x="29mm" y="26mm" /><rect height="1mm" width="1mm" x="30mm" y="26mm" /><rect height="1mm" width="1mm" x="31mm" y="26mm" /><rect height="1mm" width="1mm" x="34mm" y="26mm" /><rect height="1mm" width="1mm" x="37mm" y="26mm" /><rect height="1mm" width="1mm" x="38mm" y="26mm" /><rect height="1mm" width="1mm" x="39mm" y="26mm" /><rect height="1mm" width="1mm" x="40mm" y="26mm" /><rect height="1mm" width="1mm" x="44mm" y="26mm" /><rect height="1mm" width="1mm" x="6mm" y="27mm" /><rect height="1mm" width="1mm" x="7mm" y="27mm" /><rect height="1mm" width="1mm" x="8mm" y="27mm" /><rect height="1mm" width="1mm" x="9mm" y="27mm" /><rect height="1mm" width="1mm" x="12mm" y="27mm" /><rect height="1mm" width="1mm" x="16mm" y="27mm" /><rect height="1mm" width="1mm" x="17mm" y="27mm" /><rect height="1mm" width="1mm" x="18mm" y="27mm" /><rect height="1mm" width="1mm" x="19mm" y="27mm" /><rect height="1mm" width="1mm" x="21mm" y="27mm" /><rect height="1mm" width="1mm" x="23mm" y="27mm" /><rect height="1mm" width="1mm" x="25mm" y="27mm" /><rect height="1mm" width="1mm" x="27mm" y="27mm" /><rect height="1mm" width="1mm" x="28mm" y="27mm" /><rect height="1mm" width="1mm" x="30mm" y="27mm" /><rect height="1mm" width="1mm" x="31mm" y="27mm" /><rect height="1mm" width="1mm" x="33mm" y="27mm" /><rect height="1mm" width="1mm" x="34mm" y="27mm" /><rect height="1mm" width="1mm" x="35mm" y="27mm" /><rect height="1mm" width="1mm" x="36mm" y="27mm" /><rect height="1mm" width="1mm" x="39mm" y="27mm" /><rect height="1mm" width="1mm" x="40mm" y="27mm" /><rect height="1mm" width="1mm" x="43mm" y="27mm" /><rect height="1mm" width="1mm" x="44mm" y="27mm" /><rect height="1mm" width="1mm" x="6mm" y="28mm" /><rect height="1mm" width="1mm" x="8mm" y="28mm" /><rect height="1mm" width="1mm" x="10mm" y="28mm" /><rect height="1mm" width="1mm" x="12mm" y="28mm" /><rect height="1mm" width="1mm" x="15mm" y="28mm" /><rect height="1mm" width="1mm" x="17mm" y="28mm" /><rect height="1mm" width="1mm" x="21mm" y="28mm" /><rect height="1mm" width="1mm" x="25mm" y="28mm" /><rect height="1mm" width="1mm" x="27mm" y="28mm" /><rect height="1mm" width="1mm" x="32mm" y="28mm" /><rect height="1mm" width="1mm" x="33mm" y="28mm" /><rect height="1mm" width="1mm" x="40mm" y="28mm" /><rect height="1mm" width="1mm" x="43mm" y="28mm" /><rect height="1mm" width="1mm" x="44mm" y="28mm" /><rect height="1mm" width="1mm" x="4mm" y="29mm" /><rect height="1mm" width="1mm" x="6mm" y="29mm" /><rect height="1mm" width="1mm" x="7mm" y="29mm" /><rect height="1mm" width="1mm" x="12mm" y="29mm" /><rect height="1mm" width="1mm" x="13mm" y="29mm" /><rect height="1mm" width="1mm" x="14mm" y="29mm" /><rect height="1mm" width="1mm" x="16mm" y="29mm" /><rect height="1mm" width="1mm" x="17mm" y="29mm" /><rect height="1mm" width="1mm" x="19mm" y="29mm" /><rect height="1mm" width="1mm" x="20mm" y="29mm" /><rect height="1mm" width="1mm" x="22mm" y="29mm" /><rect height="1mm" width="1mm" x="25mm" y="29mm" /><rect height="1mm" width="1mm" x="26mm" y="29mm" /><rect height="1mm" width="1mm" x="27mm" y="29mm" /><rect height="1mm" width="1mm" x="29mm" y="29mm" /><rect height="1mm" width="1mm" x="31mm" y="29mm" /><rect height="1mm" width="1mm" x="32mm" y="29mm" /><rect height="1mm" width="1mm" x="33mm" y="29mm" /><rect height="1mm" width="1mm" x="36mm" y="29mm" /><rect height="1mm" width="1mm" x="37mm" y="29mm" /><rect height="1mm" width="1mm" x="38mm" y="29mm" /><rect height="1mm" width="1mm" x="40mm" y="29mm" /><rect height="1mm" width="1mm" x="42mm" y="29mm" /><rect height="1mm" width="1mm" x="43mm" y="29mm" /><rect height="1mm" width="1mm" x="44mm" y="29mm" /><rect height="1mm" width="1mm" x="5mm" y="30mm" /><rect height="1mm" width="1mm" x="6mm" y="30mm" /><rect height="1mm" width="1mm" x="7mm" y="30mm" /><rect height="1mm" width="1mm" x="8mm" y="30mm" /><rect height="1mm" width="1mm" x="10mm" y="30mm" /><rect height="1mm" width="1mm" x="13mm" y="30mm" /><rect height="1mm" width="1mm" x="15mm" y="30mm" /><rect height="1mm" width="1mm" x="17mm" y="30mm" /><rect height="1mm" width="1mm" x="19mm" y="30mm" /><rect height="1mm" width="1mm" x="21mm" y="30mm" /><rect height="1mm" width="1mm" x="25mm" y="30mm" /><rect height="1mm" width="1mm" x="27mm" y="30mm" /><rect height="1mm" width="1mm" x="28mm" y="30mm" /><rect height="1mm" width="1mm" x="30mm" y="30mm" /><rect height="1mm" width="1mm" x="31mm" y="30mm" /><rect height="1mm" width="1mm" x="34mm" y="30mm" /><rect height="1mm" width="1mm" x="37mm" y="30mm" /><rect height="1mm" width="1mm" x="38mm" y="30mm" /><rect height="1mm" width="1mm" x="39mm" y="30mm" /><rect height="1mm" width="1mm" x="40mm" y="30mm" /><rect height="1mm" width="1mm" x="44mm" y="30mm" /><rect height="1mm" width="1mm" x="4mm" y="31mm" /><rect height="1mm" width="1mm" x="6mm" y="31mm" /><rect height="1mm" width="1mm" x="8mm" y="31mm" /><rect height="1mm" width="1mm" x="15mm" y="31mm" /><rect height="1mm" width="1mm" x="16mm" y="31mm" /><rect height="1mm" width="1mm" x="21mm" y="31mm" /><rect height="1mm" width="1mm" x="28mm" y="31mm" /><rect height="1mm" width="1mm" x="30mm" y="31mm" /><rect height="1mm" width="1mm" x="33mm" y="31mm" /><rect height="1mm" width="1mm" x="34mm" y="31mm" /><rect height="1mm" width="1mm" x="37mm" y="31mm" /><rect height="1mm" width="1mm" x="38mm" y="31mm" /><rect height="1mm" width="1mm" x="39mm" y="31mm" /><rect height="1mm" width="1mm" x="40mm" y="31mm" /><rect height="1mm" width="1mm" x="41mm" y="31mm" /><rect height="1mm" width="1mm" x="43mm" y="31mm" /><rect height="1mm" width="1mm" x="6mm" y="32mm" /><rect height="1mm" width="1mm" x="7mm" y="32mm" /><rect height="1mm" width="1mm" x="8mm" y="32mm" /><rect height="1mm" width="1mm" x="10mm" y="32mm" /><rect height="1mm" width="1mm" x="11mm" y="32mm" /><rect height="1mm" width="1mm" x="12mm" y="32mm" /><rect height="1mm" width="1mm" x="19mm" y="32mm" /><rect height="1mm" width="1mm" x="20mm" y="32mm" /><rect height="1mm" width="1mm" x="22mm" y="32mm" /><rect height="1mm" width="1mm" x="23mm" y="32mm" /><rect height="1mm" width="1mm" x="27mm" y="32mm" /><rect height="1mm" width="1mm" x="28mm" y="32mm" /><rect height="1mm" width="1mm" x="31mm" y="32mm" /><rect height="1mm" width="1mm" x="32mm" y="32mm" /><rect height="1mm" width="1mm" x="33mm" y="32mm" /><rect height="1mm" width="1mm" x="37mm" y="32mm" /><rect height="1mm" width="1mm" x="4mm" y="33mm" /><rect height="1mm" width="1mm" x="5mm" y="33mm" /><rect height="1mm" width="1mm" x="6mm" y="33mm" /><rect height="1mm" width="1mm" x="9mm" y="33mm" /><rect height="1mm" width="1mm" x="11mm" y="33mm" /><rect height="1mm" width="1mm" x="12mm" y="33mm" /><rect height="1mm" width="1mm" x="13mm" y="33mm" /><rect height="1mm" width="1mm" x="14mm" y="33mm" /><rect height="1mm" width="1mm" x="15mm" y="33mm" /><rect height="1mm" width="1mm" x="18mm" y="33mm" /><rect height="1mm" width="1mm" x="23mm" y="33mm" /><rect height="1mm" width="1mm" x="24mm" y="33mm" /><rect height="1mm" width="1mm" x="26mm" y="33mm" /><rect height="1mm" width="1mm" x="29mm" y="33mm" /><rect height="1mm" width="1mm" x="31mm" y="33mm" /><rect height="1mm" width="1mm" x="33mm" y="33mm" /><rect height="1mm" width="1mm" x="38mm" y="33mm" /><rect height="1mm" width="1mm" x="39mm" y="33mm" /><rect height="1mm" width="1mm" x="40mm" y="33mm" /><rect height="1mm" width="1mm" x="43mm" y="33mm" /><rect height="1mm" width="1mm" x="44mm" y="33mm" /><rect height="1mm" width="1mm" x="7mm" y="34mm" /><rect height="1mm" width="1mm" x="8mm" y="34mm" /><rect height="1mm" width="1mm" x="10mm" y="34mm" /><rect height="1mm" width="1mm" x="13mm" y="34mm" /><rect height="1mm" width="1mm" x="15mm" y="34mm" /><rect height="1mm" width="1mm" x="17mm" y="34mm" /><rect height="1mm" width="1mm" x="18mm" y="34mm" /><rect height="1mm" width="1mm" x="21mm" y="34mm" /><rect height="1mm" width="1mm" x="24mm" y="34mm" /><rect height="1mm" width="1mm" x="25mm" y="34mm" /><rect height="1mm" width="1mm" x="31mm" y="34mm" /><rect height="1mm" width="1mm" x="36mm" y="34mm" /><rect height="1mm" width="1mm" x="38mm" y="34mm" /><rect height="1mm" width="1mm" x="39mm" y="34mm" /><rect height="1mm" width="1mm" x="40mm" y="34mm" /><rect height="1mm" width="1mm" x="41mm" y="34mm" /><rect height="1mm" width="1mm" x="44mm" y="34mm" /><rect height="1mm" width="1mm" x="6mm" y="35mm" /><rect height="1mm" width="1mm" x="7mm" y="35mm" /><rect height="1mm" width="1mm" x="8mm" y="35mm" /><rect height="1mm" width="1mm" x="17mm" y="35mm" /><rect height="1mm" width="1mm" x="18mm" y="35mm" /><rect height="1mm" width="1mm" x="19mm" y="35mm" /><rect height="1mm" width="1mm" x="21mm" y="35mm" /><rect height="1mm" width="1mm" x="26mm" y="35mm" /><rect height="1mm" width="1mm" x="28mm" y="35mm" /><rect height="1mm" width="1mm" x="29mm" y="35mm" /><rect height="1mm" width="1mm" x="31mm" y="35mm" /><rect height="1mm" width="1mm" x="33mm" y="35mm" /><rect height="1mm" width="1mm" x="36mm" y="35mm" /><rect height="1mm" width="1mm" x="37mm" y="35mm" /><rect height="1mm" width="1mm" x="38mm" y="35mm" /><rect height="1mm" width="1mm" x="41mm" y="35mm" /><rect height="1mm" width="1mm" x="43mm" y="35mm" /><rect height="1mm" width="1mm" x="4mm" y="36mm" /><rect height="1mm" width="1mm" x="5mm" y="36mm" /><rect height="1mm" width="1mm" x="8mm" y="36mm" /><rect height="1mm" width="1mm" x="9mm" y="36mm" /><rect height="1mm" width="1mm" x="10mm" y="36mm" /><rect height="1mm" width="1mm" x="12mm" y="36mm" /><rect height="1mm" width="1mm" x="13mm" y="36mm" /><rect height="1mm" width="1mm" x="15mm" y="36mm" /><rect height="1mm" width="1mm" x="17mm" y="36mm" /><rect height="1mm" width="1mm" x="19mm" y="36mm" /><rect height="1mm" width="1mm" x="20mm" y="36mm" /><rect height="1mm" width="1mm" x="22mm" y="36mm" /><rect height="1mm" width="1mm" x="23mm" y="36mm" /><rect height="1mm" width="1mm" x="25mm" y="36mm" /><rect height="1mm" width="1mm" x="27mm" y="36mm" /><rect height="1mm" width="1mm" x="30mm" y="36mm" /><rect height="1mm" width="1mm" x="31mm" y="36mm" /><rect height="1mm" width="1mm" x="32mm" y="36mm" /><rect height="1mm" width="1mm" x="33mm" y="36mm" /><rect height="1mm" width="1mm" x="34mm" y="36mm" /><rect height="1mm" width="1mm" x="35mm" y="36mm" /><rect height="1mm" width="1mm" x="36mm" y="36mm" /><rect height="1mm" width="1mm" x="37mm" y="36mm" /><rect height="1mm" width="1mm" x="38mm" y="36mm" /><rect height="1mm" width="1mm" x="39mm" y="36mm" /><rect height="1mm" width="1mm" x="40mm" y="36mm" /><rect height="1mm" width="1mm" x="44mm" y="36mm" /><rect height="1mm" width="1mm" x="12mm" y="37mm" /><rect height="1mm" width="1mm" x="16mm" y="37mm" /><rect height="1mm" width="1mm" x="17mm" y="37mm" /><rect height="1mm" width="1mm" x="18mm" y="37mm" /><rect height="1mm" width="1mm" x="19mm" y="37mm" /><rect height="1mm" width="1mm" x="20mm" y="37mm" /><rect height="1mm" width="1mm" x="24mm" y="37mm" /><rect height="1mm" width="1mm" x="25mm" y="37mm" /><rect height="1mm" width="1mm" x="26mm" y="37mm" /><rect height="1mm" width="1mm" x="27mm" y="37mm" /><rect height="1mm" width="1mm" x="28mm" y="37mm" /><rect height="1mm" width="1mm" x="29mm" y="37mm" /><rect height="1mm" width="1mm" x="36mm" y="37mm" /><rect height="1mm" width="1mm" x="40mm" y="37mm" /><rect height="1mm" width="1mm" x="44mm" y="37mm" /><rect height="1mm" width="1mm" x="4mm" y="38mm" /><rect height="1mm" width="1mm" x="5mm" y="38mm" /><rect height="1mm" width="1mm" x="6mm" y="38mm" /><rect height="1mm" width="1mm" x="7mm" y="38mm" /><rect height="1mm" width="1mm" x="8mm" y="38mm" /><rect height="1mm" width="1mm" x="9mm" y="38mm" /><rect height="1mm" width="1mm" x="10mm" y="38mm" /><rect height="1mm" width="1mm" x="12mm" y="38mm" /><rect height="1mm" width="1mm" x="14mm" y="38mm" /><rect height="1mm" width="1mm" x="21mm" y="38mm" /><rect height="1mm" width="1mm" x="27mm" y="38mm" /><rect height="1mm" width="1mm" x="33mm" y="38mm" /><rect height="1mm" width="1mm" x="34mm" y="38mm" /><rect height="1mm" width="1mm" x="35mm" y="38mm" /><rect height="1mm" width="1mm" x="36mm" y="38mm" /><rect height="1mm" width="1mm" x="38mm" y="38mm" /><rect height="1mm" width="1mm" x="40mm" y="38mm" /><rect height="1mm" width="1mm" x="42mm" y="38mm" /><rect height="1mm" width="1mm" x="44mm" y="38mm" /><rect height="1mm" width="1mm" x="4mm" y="39mm" /><rect height="1mm" width="1mm" x="10mm" y="39mm" /><rect height="1mm" width="1mm" x="15mm" y="39mm" /><rect height="1mm" width="1mm" x="17mm" y="39mm" /><rect height="1mm" width="1mm" x="18mm" y="39mm" /><rect height="1mm" width="1mm" x="21mm" y="39mm" /><rect height="1mm" width="1mm" x="22mm" y="39mm" /><rect height="1mm" width="1mm" x="23mm" y="39mm" /><rect height="1mm" width="1mm" x="26mm" y="39mm" /><rect height="1mm" width="1mm" x="28mm" y="39mm" /><rect height="1mm" width="1mm" x="30mm" y="39mm" /><rect height="1mm" width="1mm" x="31mm" y="39mm" /><rect height="1mm" width="1mm" x="32mm" y="39mm" /><rect height="1mm" width="1mm" x="33mm" y="39mm" /><rect height="1mm" width="1mm" x="36mm" y="39mm" /><rect height="1mm" width="1mm" x="40mm" y="39mm" /><rect height="1mm" width="1mm" x="43mm" y="39mm" /><rect height="1mm" width="1mm" x="44mm" y="39mm" /><rect height="1mm" width="1mm" x="4mm" y="40mm" /><rect height="1mm" width="1mm" x="6mm" y="40mm" /><rect height="1mm" width="1mm" x="7mm" y="40mm" /><rect height="1mm" width="1mm" x="8mm" y="40mm" /><rect height="1mm" width="1mm" x="10mm" y="40mm" /><rect height="1mm" width="1mm" x="12mm" y="40mm" /><rect height="1mm" width="1mm" x="14mm" y="40mm" /><rect height="1mm" width="1mm" x="18mm" y="40mm" /><rect height="1mm" width="1mm" x="19mm" y="40mm" /><rect height="1mm" width="1mm" x="22mm" y="40mm" /><rect height="1mm" width="1mm" x="24mm" y="40mm" /><rect height="1mm" width="1mm" x="26mm" y="40mm" /><rect height="1mm" width="1mm" x="29mm" y="40mm" /><rect height="1mm" width="1mm" x="30mm" y="40mm" /><rect height="1mm" width="1mm" x="31mm" y="40mm" /><rect height="1mm" width="1mm" x="33mm" y="40mm" /><rect height="1mm" width="1mm" x="34mm" y="40mm" /><rect height="1mm" width="1mm" x="35mm" y="40mm" /><rect height="1mm" width="1mm" x="36mm" y="40mm" /><rect height="1mm" width="1mm" x="37mm" y="40mm" /><rect height="1mm" width="1mm" x="38mm" y="40mm" /><rect height="1mm" width="1mm" x="39mm" y="40mm" /><rect height="1mm" width="1mm" x="40mm" y="40mm" /><rect height="1mm" width="1mm" x="41mm" y="40mm" /><rect height="1mm" width="1mm" x="44mm" y="40mm" /><rect height="1mm" width="1mm" x="4mm" y="41mm" /><rect height="1mm" width="1mm" x="6mm" y="41mm" /><rect height="1mm" width="1mm" x="7mm" y="41mm" /><rect height="1mm" width="1mm" x="8mm" y="41mm" /><rect height="1mm" width="1mm" x="10mm" y="41mm" /><rect height="1mm" width="1mm" x="15mm" y="41mm" /><rect height="1mm" width="1mm" x="16mm" y="41mm" /><rect height="1mm" width="1mm" x="21mm" y="41mm" /><rect height="1mm" width="1mm" x="27mm" y="41mm" /><rect height="1mm" width="1mm" x="28mm" y="41mm" /><rect height="1mm" width="1mm" x="29mm" y="41mm" /><rect height="1mm" width="1mm" x="31mm" y="41mm" /><rect height="1mm" width="1mm" x="32mm" y="41mm" /><rect height="1mm" width="1mm" x="35mm" y="41mm" /><rect height="1mm" width="1mm" x="37mm" y="41mm" /><rect height="1mm" width="1mm" x="42mm" y="41mm" /><rect height="1mm" width="1mm" x="44mm" y="41mm" /><rect height="1mm" width="1mm" x="4mm" y="42mm" /><rect height="1mm" width="1mm" x="6mm" y="42mm" /><rect height="1mm" width="1mm" x="7mm" y="42mm" /><rect height="1mm" width="1mm" x="8mm" y="42mm" /><rect height="1mm" width="1mm" x="10mm" y="42mm" /><rect height="1mm" width="1mm" x="15mm" y="42mm" /><rect height="1mm" width="1mm" x="16mm" y="42mm" /><rect height="1mm" width="1mm" x="17mm" y="42mm" /><rect height="1mm" width="1mm" x="21mm" y="42mm" /><rect height="1mm" width="1mm" x="22mm" y="42mm" /><rect height="1mm" width="1mm" x="23mm" y="42mm" /><rect height="1mm" width="1mm" x="24mm" y="42mm" /><rect height="1mm" width="1mm" x="25mm" y="42mm" /><rect height="1mm" width="1mm" x="27mm" y="42mm" /><rect height="1mm" width="1mm" x="30mm" y="42mm" /><rect height="1mm" width="1mm" x="31mm" y="42mm" /><rect height="1mm" width="1mm" x="33mm" y="42mm" /><rect height="1mm" width="1mm" x="34mm" y="42mm" /><rect height="1mm" width="1mm" x="37mm" y="42mm" /><rect height="1mm" width="1mm" x="43mm" y="42mm" /><rect height="1mm" width="1mm" x="44mm" y="42mm" /><rect height="1mm" width="1mm" x="4mm" y="43mm" /><rect height="1mm" width="1mm" x="10mm" y="43mm" /><rect height="1mm" width="1mm" x="16mm" y="43mm" /><rect height="1mm" width="1mm" x="17mm" y="43mm" /><rect height="1mm" width="1mm" x="18mm" y="43mm" /><rect height="1mm" width="1mm" x="20mm" y="43mm" /><rect height="1mm" width="1mm" x="21mm" y="43mm" /><rect height="1mm" width="1mm" x="25mm" y="43mm" /><rect height="1mm" width="1mm" x="26mm" y="43mm" /><rect height="1mm" width="1mm" x="27mm" y="43mm" /><rect height="1mm" width="1mm" x="28mm" y="43mm" /><rect height="1mm" width="1mm" x="32mm" y="43mm" /><rect height="1mm" width="1mm" x="33mm" y="43mm" /><rect height="1mm" width="1mm" x="36mm" y="43mm" /><rect height="1mm" width="1mm" x="39mm" y="43mm" /><rect height="1mm" width="1mm" x="43mm" y="43mm" /><rect height="1mm" width="1mm" x="44mm" y="43mm" /><rect height="1mm" width="1mm" x="4mm" y="44mm" /><rect height="1mm" width="1mm" x="5mm" y="44mm" /><rect height="1mm" width="1mm" x="6mm" y="44mm" /><rect height="1mm" width="1mm" x="7mm" y="44mm" /><rect height="1mm" width="1mm" x="8mm" y="44mm" /><rect height="1mm" width="1mm" x="9mm" y="44mm" /><rect height="1mm" width="1mm" x="10mm" y="44mm" /><rect height="1mm" width="1mm" x="12mm" y="44mm" /><rect height="1mm" width="1mm" x="14mm" y="44mm" /><rect height="1mm" width="1mm" x="16mm" y="44mm" /><rect height="1mm" width="1mm" x="17mm" y="44mm" /><rect height="1mm" width="1mm" x="18mm" y="44mm" /><rect height="1mm" width="1mm" x="19mm" y="44mm" /><rect height="1mm" width="1mm" x="25mm" y="44mm" /><rect height="1mm" width="1mm" x="28mm" y="44mm" /><rect height="1mm" width="1mm" x="33mm" y="44mm" /><rect height="1mm" width="1mm" x="35mm" y="44mm" /><rect height="1mm" width="1mm" x="36mm" y="44mm" /><rect height="1mm" width="1mm" x="37mm" y="44mm" /><rect height="1mm" width="1mm" x="38mm" y="44mm" /><rect height="1mm" width="1mm" x="40mm" y="44mm" /><rect height="1mm" width="1mm" x="41mm" y="44mm" /><rect height="1mm" width="1mm" x="42mm" y="44mm" /><rect height="1mm" width="1mm" x="43mm" y="44mm" /></svg>